<?xml version="1.0" ?><svg id="Technology_city_for_elder" viewBox="0 0 512 512" xmlns="http://www.w3.org/2000/svg"><path d="M241.6276,116.2314h17.1509a6,6,0,0,0,0-12H241.6276a6,6,0,0,0,0,12Z"/><path d="M403.4889,290.2207a6,6,0,0,0,6-6V267.07a6,6,0,0,0-12,0v17.15A6,6,0,0,0,403.4889,290.2207Z"/><path d="M397.4889,322.7812a6,6,0,0,0,12,0v-17.15a6,6,0,0,0-12,0Z"/><path d="M201.6369,116.2314h17.1513a6,6,0,0,0,0-12H201.6369a6,6,0,0,0,0,12Z"/><path d="M161.6466,116.2314h17.1509a6,6,0,0,0,0-12H161.6466a6,6,0,0,0,0,12Z"/><path d="M119.4054,136.11a6,6,0,0,0,6-6V118.9072a2.6791,2.6791,0,0,1,2.6763-2.6758h10.7256a6,6,0,0,0,0-12H128.0817a14.6931,14.6931,0,0,0-14.6763,14.6758V130.11A6,6,0,0,0,119.4054,136.11Z"/><path d="M478.7208,129.9141a18.9908,18.9908,0,0,0-17.98,12.9687H438.1134V113.85h27.6392a6,6,0,0,0,6-6V89.3633a18.9683,18.9683,0,1,0-12,0V101.85H438.1134V92.2422a12.1922,12.1922,0,0,0-12.1787-12.1787H409.4889v-32.66a18.9682,18.9682,0,1,0-12,0v32.66H377.33V57.0723a6,6,0,0,0-6-6h-30.05a18.9677,18.9677,0,1,0,0,12h24.05V80.0635H350.2a12.1923,12.1923,0,0,0-12.1788,12.1787v11.9892H313.0387a18.9688,18.9688,0,1,0,0,12h24.9824v51.7461A12.1922,12.1922,0,0,0,350.2,180.1562h15.13v14.9874h-24.05a18.9687,18.9687,0,1,0,0,12h30.05a6,6,0,0,0,6-6V180.1562h20.1592v34.5567a18.9678,18.9678,0,1,0,12,0V180.1562h16.4458a12.1922,12.1922,0,0,0,12.1787-12.1787V154.8828h22.6275a18.9621,18.9621,0,1,0,17.98-24.9687ZM458.7843,71.3828a6.9683,6.9683,0,1,1,6.9683,6.9688A6.9761,6.9761,0,0,1,458.7843,71.3828ZM323.3,64.04a6.9678,6.9678,0,1,1,6.9677-6.9677A6.976,6.976,0,0,1,323.3,64.04ZM295.0587,117.2a6.9683,6.9683,0,1,1,6.9683-6.9688A6.9763,6.9763,0,0,1,295.0587,117.2ZM323.3,208.1123a6.9683,6.9683,0,1,1,6.9677-6.9687A6.9763,6.9763,0,0,1,323.3,208.1123Zm87.1567,24.58a6.968,6.968,0,1,1-6.9678-6.9678A6.9761,6.9761,0,0,1,410.4567,232.6924ZM403.4889,36.3916a6.9683,6.9683,0,1,1,6.9678-6.9678A6.976,6.976,0,0,1,403.4889,36.3916Zm75.2319,119.459a6.9683,6.9683,0,1,1,6.9678-6.9678A6.9761,6.9761,0,0,1,478.7208,155.8506Z"/><path d="M55.2223,436.07h-35.24a6,6,0,0,0,0,12h58.42a6,6,0,0,0,0-12h-11.18V386.1h-12Z"/><path d="M473.5823,455.84V409.2a25.4188,25.4188,0,0,0-25.39-25.39h-63.7V364.44h38.54a6,6,0,0,0,0-12h-38.54V334.19a14.474,14.474,0,0,0-14.46-14.46h-20.45a6,6,0,0,0,0,12h20.45a2.4583,2.4583,0,0,1,2.46,2.46v74.49a46.5578,46.5578,0,0,0-26.6,27.36h-26.57a4.795,4.795,0,0,1-4.78-4.79V307.15h8.79a13.9558,13.9558,0,0,0,9.62-24.06l-71.53-68.18a13.9558,13.9558,0,0,0-19.26,0l-41.15,39.22V164.44a16.0939,16.0939,0,0,0-16.08-16.08H71.4723a16.0939,16.0939,0,0,0-16.08,16.08v85.6a40.2379,40.2379,0,0,0-30.69,53.75,36.7844,36.7844,0,0,1-4.96,34.56,30.0959,30.0959,0,0,0,24.38,47.75h11.1V360.1506a6.098,6.098,0,0,0-1.59-4.1059L43.3822,344.79a5.9948,5.9948,0,0,1,.9976-8.957,6.1434,6.1434,0,0,1,8.0159,1.0342l8.8266,9.6929,8.97-9.85a6.0033,6.0033,0,0,1,8.883.0234,6.17,6.17,0,0,1-.1875,8.248L68.81,356.0552a6.0974,6.0974,0,0,0-1.5879,4.104V386.1h13.81a30.0961,30.0961,0,0,0,24.38-47.75l-.77-1.06a36.848,36.848,0,0,1-4.43-34.09,40.23,40.23,0,0,0-32.82-53.44V164.44a4.0843,4.0843,0,0,1,4.08-4.08h113.46a4.0843,4.0843,0,0,1,4.08,4.08V265.57l-18.38,17.52a13.956,13.956,0,0,0,9.63,24.06h8.75V431.99a4.0844,4.0844,0,0,1-4.08,4.08h-76.76a6,6,0,0,0,0,12h76.76a16.1,16.1,0,0,0,16.08-16.08V307.15h101.53v124.1a16.8046,16.8046,0,0,0,16.78,16.79h23.98c-.1,1.23-.16,2.47-.16,3.73a46.3251,46.3251,0,1,0,90.87-12.7h27.57v16.77a21.56,21.56,0,1,0,12,0Zm-84.12,30.26a34.33,34.33,0,1,1,34.33-34.33A34.3663,34.3663,0,0,1,389.4623,486.1Zm78.12,0a9.5651,9.5651,0,1,1,9.56-9.57A9.5768,9.5768,0,0,1,467.5823,486.1Z"/><path d="M389.4665,433.2a18.5684,18.5684,0,1,0,18.5683,18.5684A18.59,18.59,0,0,0,389.4665,433.2Zm0,25.1367a6.5684,6.5684,0,1,1,6.5683-6.5683A6.5755,6.5755,0,0,1,389.4665,458.3369Z"/><path d="M98.7086,184.0088a16.35,16.35,0,0,0-16.332,16.332V238.04a6,6,0,0,0,6,6h20.6641a6,6,0,0,0,6-6V200.3408A16.35,16.35,0,0,0,98.7086,184.0088Z"/><path d="M163.8717,244.04a6,6,0,0,0,6-6V200.3408a16.332,16.332,0,1,0-32.664,0V238.04a6,6,0,0,0,6,6Z"/><path d="M137.2077,372.66a6,6,0,0,0,6,6h20.664a6,6,0,0,0,6-6V334.9619a16.332,16.332,0,1,0-32.664,0Z"/><path d="M269.151,357.6484H234.4372a11.7676,11.7676,0,0,0-11.7549,11.7539v72.667a5.9975,5.9975,0,0,0,5.8945,5.9947v.0053h46.3926v-.0031a5.9985,5.9985,0,0,0,5.9355-5.9969v-72.667A11.7668,11.7668,0,0,0,269.151,357.6484Z"/><path d="M316.27,473.1953H287.8551a6,6,0,0,0,0,12H316.27a6,6,0,1,0,0-12Z"/><path d="M249.3014,473.1953h-28.415a6,6,0,1,0,0,12h28.415a6,6,0,0,0,0-12Z"/><path d="M182.3336,473.1953h-28.415a6,6,0,1,0,0,12h28.415a6,6,0,1,0,0-12Z"/><path d="M115.3649,473.1953H86.95a6,6,0,1,0,0,12h28.415a6,6,0,1,0,0-12Z"/><path d="M48.42,473.1953H20.0053a6,6,0,1,0,0,12H48.42a6,6,0,0,0,0-12Z"/></svg>