<?xml version="1.0" ?><svg id="Layer_1" style="enable-background:new 0 0 66 66;" version="1.1" viewBox="0 0 66 66" xml:space="preserve" xmlns="http://www.w3.org/2000/svg" xmlns:xlink="http://www.w3.org/1999/xlink"><g><path d="M64.42,46.12l-7.2-9.87c-0.58-0.8-1.7-1.01-2.53-0.47l-3.85,2.49c-0.26,0.19-0.44,0.47-0.49,0.79   c-0.04,0.25,0.02,0.49,0.12,0.71l-0.36,0.12V15.93c0-0.65-0.08-1.29-0.24-1.94c-0.01-0.02-0.02-0.05-0.02-0.07c0,0,0,0,0,0   c-0.41-1.58-1.27-2.98-2.5-4.04l-8.02-6.99c-1.17-0.98-2.6-1.61-4.13-1.81c-0.02,0-0.05,0-0.07-0.01c0,0,0,0,0,0c0,0,0,0,0,0   C34.83,1.03,34.51,1,34.16,1H9.27C4.83,1,1.22,4.61,1.22,9.05v47.39c0,4.44,3.61,8.05,8.05,8.05h32.57   c0.44,0.33,0.98,0.51,1.52,0.51c0.77,0,1.5-0.35,1.98-0.95c0.43-0.54,0.61-1.21,0.55-1.85c0.95,0.25,2-0.1,2.62-0.87   c0.43-0.54,0.61-1.19,0.55-1.83c0.96,0.27,2.03-0.07,2.66-0.86c0.66-0.82,0.72-1.93,0.26-2.8c0.65-0.08,1.24-0.41,1.66-0.93   c0.48-0.6,0.63-1.34,0.51-2.04c0.08,0.01,0.16,0.02,0.24,0.02c0.45,0,0.9-0.13,1.29-0.39l2.68-1.79l0.2,0.27   c0.19,0.26,0.47,0.44,0.8,0.49c0.06,0.01,0.13,0.01,0.19,0.01c0.26,0,0.5-0.08,0.7-0.22l3.7-2.47c0.43-0.29,0.71-0.72,0.8-1.23   C64.84,47.05,64.72,46.54,64.42,46.12z M46.71,10.61c0.94,0.81,1.61,1.85,2.02,3.01h-11.2c-1.05,0-1.9-0.85-1.9-1.9V2.15   c1.14,0.24,2.2,0.73,3.08,1.47L46.71,10.61z M2.2,56.44V9.05c0-3.9,3.17-7.07,7.07-7.07h24.89c0.18,0,0.33,0.02,0.49,0.03v9.71   c0,1.59,1.29,2.88,2.88,2.88H49c0.09,0.45,0.14,0.89,0.14,1.34v23.61l-4.25-1.68c-1.3-0.52-2.78-0.38-3.96,0.37l-2.45,1.55   c-0.01-0.01-0.03-0.02-0.04-0.02l-2.28-0.72l0.2-0.27c0.19-0.26,0.27-0.58,0.22-0.91s-0.23-0.6-0.51-0.8l-3.83-2.48   c-0.83-0.54-1.94-0.33-2.53,0.47l-7.2,9.87c-0.3,0.41-0.42,0.92-0.33,1.43c0.09,0.51,0.37,0.94,0.8,1.23l3.68,2.46   c0.21,0.16,0.46,0.24,0.72,0.24c0.06,0,0.13,0,0.19-0.02c0.21-0.03,0.38-0.13,0.54-0.25c0.44,0.45,0.72,1.02,0.81,1.64l-0.76,0.98   c-0.38,0.49-0.54,1.09-0.47,1.71c0.08,0.61,0.39,1.16,0.88,1.53c0.42,0.33,0.92,0.48,1.41,0.48c0.07,0,0.13-0.02,0.19-0.02   c-0.05,0.25-0.07,0.51-0.04,0.77c0.08,0.61,0.39,1.16,0.88,1.53c0.42,0.33,0.92,0.48,1.41,0.48c0.2,0,0.4-0.03,0.6-0.09   c0,0.69,0.3,1.37,0.88,1.83c0.42,0.33,0.92,0.48,1.41,0.48c0.2,0,0.4-0.03,0.59-0.09c0,0.69,0.3,1.36,0.88,1.82   c0.28,0.22,0.6,0.36,0.94,0.43H9.27C5.37,63.51,2.2,60.34,2.2,56.44z M27.57,49.2c-0.05,0.07-0.12,0.09-0.15,0.09   c-0.04,0-0.11,0.01-0.19-0.06l-3.7-2.47c-0.2-0.14-0.34-0.35-0.38-0.59c-0.04-0.24,0.01-0.48,0.16-0.68l7.2-9.87   c0.17-0.24,0.45-0.37,0.72-0.37c0.17,0,0.34,0.05,0.49,0.14l3.81,2.46c0.07,0.05,0.09,0.12,0.09,0.15   c0.01,0.04,0.01,0.11-0.04,0.18L27.57,49.2z M34.11,52.46c0.26-0.34,0.66-0.52,1.05-0.52c0.29,0,0.57,0.09,0.82,0.28   c0.28,0.22,0.46,0.53,0.51,0.89c0.04,0.35-0.05,0.7-0.27,0.98l-2.74,3.53c-0.45,0.58-1.29,0.69-1.87,0.23   c-0.28-0.22-0.46-0.53-0.51-0.89c-0.04-0.35,0.05-0.7,0.27-0.99l0.35-0.45c0.03-0.03,0.06-0.06,0.09-0.09l1.54-1.98   c0.03-0.04,0.05-0.09,0.08-0.13L34.11,52.46z M39.91,62.8l0.81,0.71h-2.07C39.14,63.41,39.58,63.17,39.91,62.8z M39.52,61.74   c-0.01,0.01-0.03,0.02-0.04,0.03c-0.02,0.03-0.03,0.06-0.05,0.09l-0.16,0.21c-0.22,0.28-0.53,0.46-0.89,0.51   c-0.35,0.05-0.7-0.05-0.98-0.27c-0.58-0.45-0.68-1.28-0.24-1.86l1.81-2.33c0.26-0.33,0.65-0.5,1.04-0.5c0.29,0,0.57,0.09,0.82,0.28   c0.58,0.45,0.69,1.29,0.24,1.87L39.52,61.74z M38.63,56.95l-0.44,0.57c0,0.01-0.01,0.01-0.01,0.01l-1.79,2.31   c-0.01,0.01-0.01,0.01-0.01,0.02c-0.45,0.58-1.29,0.69-1.87,0.24c-0.58-0.45-0.69-1.29-0.24-1.87l2.26-2.91   c0.26-0.34,0.66-0.52,1.05-0.52c0.29,0,0.57,0.09,0.82,0.28C38.98,55.52,39.08,56.36,38.63,56.95z M32.61,52.81l-1.63,2.1   c-0.46,0.53-1.25,0.62-1.81,0.18c-0.28-0.22-0.46-0.53-0.51-0.89c-0.04-0.35,0.05-0.7,0.27-0.99l1.54-1.98   c0.26-0.34,0.66-0.52,1.05-0.52c0.29,0,0.57,0.09,0.82,0.28c0.28,0.22,0.46,0.53,0.51,0.89C32.88,52.22,32.79,52.54,32.61,52.81z    M44.59,63.44c-0.51,0.64-1.51,0.73-2.13,0.28c-0.06-0.08-0.13-0.14-0.22-0.18l-1.71-1.5l1.3-1.67c0.18-0.23,0.3-0.49,0.38-0.75   l2.2,1.67C45.03,61.83,45.12,62.78,44.59,63.44z M52.89,54.3c-0.49,0.61-1.42,0.76-2.08,0.33l-4.65-3.53   c-0.22-0.16-0.52-0.12-0.68,0.09c-0.16,0.21-0.12,0.52,0.09,0.68l4.67,3.54l0.5,0.41c0.67,0.54,0.78,1.53,0.24,2.2   c-0.52,0.65-1.55,0.76-2.2,0.24l-0.39-0.32c0,0-0.01-0.01-0.01-0.01l-0.06-0.05l-0.14-0.12c-0.01-0.01-0.02-0.02-0.03-0.02   c-0.01-0.01-0.03-0.01-0.04-0.02l-4.4-3.33c-0.22-0.16-0.52-0.12-0.68,0.09c-0.16,0.21-0.12,0.52,0.09,0.68l4.47,3.39   c0.61,0.55,0.69,1.49,0.17,2.14c-0.52,0.65-1.55,0.76-2.2,0.25L45,60.51c-0.01-0.01-0.02-0.02-0.04-0.03   c-0.01-0.01-0.02-0.01-0.03-0.01l-2.71-2.05c-0.12-0.49-0.39-0.95-0.82-1.29c-0.47-0.37-1.04-0.51-1.59-0.47   c0.06-0.26,0.08-0.54,0.05-0.81c-0.08-0.61-0.39-1.16-0.88-1.54c-0.47-0.37-1.04-0.51-1.59-0.47c0.07-0.27,0.09-0.56,0.05-0.84   c-0.08-0.61-0.39-1.16-0.88-1.54c-0.85-0.66-2.02-0.63-2.84,0.01c-0.13-0.49-0.4-0.92-0.81-1.23c-1-0.78-2.46-0.6-3.24,0.41   l-0.03,0.04c-0.2-0.54-0.51-1.03-0.93-1.43l6.82-9.38l1.86,0.59l-2.94,1.86c-0.4,0.26-0.68,0.67-0.77,1.14   c-0.08,0.47,0.03,0.96,0.32,1.34c0.77,1.01,1.94,1.59,3.21,1.59c0.73,0,1.45-0.2,2.08-0.58l3.26-1.96l10.25,8.44   C53.33,52.85,53.37,53.7,52.89,54.3z M55.15,51.68c-0.5,0.33-1.14,0.3-1.6-0.08l-0.1-0.09c-0.06-0.06-0.11-0.12-0.18-0.18   c-0.03-0.02-0.06-0.03-0.09-0.05l-10.23-8.42c-0.09-0.07-0.2-0.11-0.31-0.11c-0.09,0-0.17,0.02-0.25,0.07l-3.55,2.14   c-0.48,0.29-1.02,0.44-1.58,0.44c-0.96,0-1.85-0.44-2.44-1.2c-0.13-0.17-0.18-0.37-0.14-0.58c0.04-0.21,0.15-0.38,0.33-0.49   l6.46-4.08c0.92-0.58,2.07-0.69,3.08-0.29l5.34,2.11c0.11,0.04,0.23,0.04,0.33,0.01l0.81-0.27l6.76,9.31L55.15,51.68z M63.4,47.97   l-3.72,2.48c-0.07,0.05-0.14,0.05-0.17,0.04c-0.04-0.01-0.1-0.03-0.15-0.09l-8-11.01c-0.05-0.07-0.05-0.14-0.04-0.18   c0.01-0.04,0.03-0.1,0.07-0.14l3.83-2.48c0.15-0.1,0.32-0.14,0.49-0.14c0.28,0,0.55,0.13,0.72,0.37l7.2,9.87   c0.14,0.2,0.2,0.44,0.16,0.68C63.74,47.63,63.61,47.83,63.4,47.97z"/><path d="M7.32,16.49H29c0.98,0,1.78-0.8,1.78-1.78V8.98C30.79,8,29.99,7.2,29,7.2H7.32C6.34,7.2,5.54,8,5.54,8.98v5.73   C5.54,15.69,6.34,16.49,7.32,16.49z M6.51,8.98c0-0.45,0.36-0.81,0.81-0.81H29c0.45,0,0.81,0.36,0.81,0.81v5.73   c0,0.45-0.36,0.81-0.81,0.81H7.32c-0.45,0-0.81-0.36-0.81-0.81V8.98z"/><path d="M5.8,21.8h37.61c0.27,0,0.49-0.22,0.49-0.49s-0.22-0.49-0.49-0.49H5.8c-0.27,0-0.49,0.22-0.49,0.49S5.53,21.8,5.8,21.8z"/><path d="M5.8,26.84h37.61c0.27,0,0.49-0.22,0.49-0.49s-0.22-0.49-0.49-0.49H5.8c-0.27,0-0.49,0.22-0.49,0.49S5.53,26.84,5.8,26.84z   "/><path d="M5.8,31.89h37.61c0.27,0,0.49-0.22,0.49-0.49c0-0.27-0.22-0.49-0.49-0.49H5.8c-0.27,0-0.49,0.22-0.49,0.49   C5.32,31.67,5.53,31.89,5.8,31.89z"/><path d="M43.41,35.96h-5.12c-0.27,0-0.49,0.22-0.49,0.49c0,0.27,0.22,0.49,0.49,0.49h5.12c0.27,0,0.49-0.22,0.49-0.49   C43.9,36.17,43.68,35.96,43.41,35.96z"/><path d="M5.8,36.93h16.83c0.27,0,0.49-0.22,0.49-0.49c0-0.27-0.22-0.49-0.49-0.49H5.8c-0.27,0-0.49,0.22-0.49,0.49   C5.32,36.71,5.53,36.93,5.8,36.93z"/><path d="M21.43,41H5.8c-0.27,0-0.49,0.22-0.49,0.49c0,0.27,0.22,0.49,0.49,0.49h15.62c0.27,0,0.49-0.22,0.49-0.49   C21.92,41.22,21.7,41,21.43,41z"/><path d="M12.97,45.41c-4.22,0-7.66,3.44-7.66,7.66s3.44,7.66,7.66,7.66c4.23,0,7.67-3.44,7.67-7.66S17.2,45.41,12.97,45.41z    M12.97,59.75c-3.68,0-6.68-3-6.68-6.68s3-6.68,6.68-6.68c3.69,0,6.69,3,6.69,6.68S16.66,59.75,12.97,59.75z"/><path d="M16.35,51.43l-1.75-0.23l-0.8-1.62c-0.31-0.64-1.34-0.64-1.66,0l-0.76,1.59l-1.79,0.26c-0.35,0.05-0.64,0.29-0.75,0.63   c-0.11,0.34-0.02,0.7,0.23,0.95l1.28,1.21L10.07,56c-0.06,0.35,0.08,0.7,0.37,0.9c0.16,0.12,0.35,0.18,0.54,0.18   c0.15,0,0.29-0.04,0.43-0.11l1.55-0.84l1.6,0.84c0.31,0.17,0.68,0.14,0.97-0.07c0.29-0.21,0.43-0.56,0.37-0.91l-0.32-1.73L16.87,53   c0.25-0.25,0.34-0.61,0.23-0.95C16.99,51.72,16.7,51.48,16.35,51.43z M14.89,53.57c-0.22,0.21-0.32,0.52-0.26,0.82l0.38,1.72   l-1.6-0.84c-0.27-0.14-0.59-0.14-0.86,0l-1.52,0.89l0.3-1.78c0.05-0.3-0.05-0.61-0.27-0.82L9.75,52.4l1.79-0.26   c0.3-0.04,0.56-0.23,0.69-0.51l0.74-1.56l0.77,1.56c0.13,0.27,0.39,0.46,0.7,0.5l1.76,0.17L14.89,53.57z"/></g></svg>